<?xml version="1.0" encoding="UTF-8"?>
<svg id="Layer_2" data-name="Layer 2" xmlns="http://www.w3.org/2000/svg" viewBox="0 0 389.54 433.81">
  <g id="Layer_1-2" data-name="Layer 1">
    <g>
      <path d="M271.17,272c4.6-21.21-10.04-18.91-21.01-27.48-8.21-6.41-23.19-33.19-5.38-35.44,14.03-1.77,10.61,11.25,15.96,17.86,3.28,4.05,14.04,6.36,18.94,10.06,10.15,7.65,14.31,24.14,12.26,36.26-1.18,6.97-9.28,17.99-16.49,19.51-17.17,3.61-18.17-12.24-30.01-14.53-12.17-2.35-19.39-1.84-28.79-12.21-4.9-5.41-15.35-28.99-4.75-31.87,8.48-2.31,11.64,15.91,17.33,20.29,9.01,6.95,18.76,2.58,27.92,6.08,5.98,2.28,8.95,7.92,14.01,11.48Z"/>
      <g>
        <path d="M232.18,378c-9.18,1.1-22.02-1.93-27.98,6.5,15.04,10.38,29.16,39.68,4.2,47.22-9.25,2.79-53.35,2.3-64.76,1.32-30.01-2.59-29.45-30.55-28.57-53.93-47.22-3.22-88.58-29.73-106.37-74.12-6.31-15.75-16.17-57.22.53-68.43,12.72-8.54,21.04,8.6,27.93,15.98,11.24,12.04,26.15,21.57,42.93,23.39,9.25-31.13,30.6-58.62,55.62-78.89,11.44-9.26,35.22-19.93,40.5-32.5,8.38-19.95-4.04-50.38-5.02-72.03-1.76-39.22,21.57-80.75,61.79-89.19,68.23-14.33,162.87,17.85,156.24,101.24-3.28,41.18-48.99,59.77-85.04,61.47-1.11,1.09,7.52,28.78,8.53,29.97,2.12,2.49,11.48,2.39,15.68,3.32,20.26,4.52,38.6,22.11,40.67,43.32,1.32,13.51-4.58,28.7-20.37,27.39-9.86-.82-15.48-12.43-25.5-14.01.54,13.86-1.85,27.51-4.49,41.01-.62,3.15-2.99,8.02-3.04,10.48-.09,3.72,2.96,10.63,3.41,15.13,1.59,15.84-4.17,34.77-12.86,47.88,12.81,7.75,31.3,21.55,27.75,38.77-1.28,6.2-10.18,12.8-16.36,13.64-11.71,1.6-52.12,1.6-63.83,0-5.22-.72-13.2-5.54-16.04-9.96-1.87-2.91-5.55-16.24-5.55-19.45v-15.5ZM330.17,141.01c-15.1.14-58.14-8.4-61.76-25.74-1.11-5.29.97-10.4,7.04-9.1,3.72.8,15.69,9.34,21.46,11.59,12.93,5.03,47.31,10.29,59.19,3.66,15.1-8.43,12.31-38.64,6.27-52.12-20.29-45.29-120.59-64.41-152.22-28.83-40.51,45.58,8,97.81-17.75,138.25-9.34,14.66-26.68,21.65-40.14,31.86-27.73,21.04-51.03,52.83-55.96,88.04-.54,3.9-.13,18.58-2.53,20.46-6.01,4.73-14.27-4.97-16.08-10.12-1.54-4.41-.97-8.38-2.48-12.52-20.82-3.48-39.54-15.03-53.55-30.45.92,51.77,46.63,91.97,97.46,91.95,1.31-7.78,6.51-30.49,18.11-20.52,8.56,7.37.37,28.36-.93,38.2-1.03,7.77-3.37,31.37,3.94,35.79,2.03,1.23,4.1,1.4,6.38,1.62,12.92,1.19,35.96.92,49.09.01,1.94-.13,3.61-.59,5.45-1.06-2.04-9.94-24.63-16.94-26.55-22.94-3.02-9.46,6.07-11.65,11.03-16.07,31.95-28.49,35.92-68.85,1.53-97.49-4.31-3.59-16.33-8.35-13.53-14.46,4.94-10.8,27.35,4.14,33.04,8.95,24.03,20.32,33.25,58.95,17.48,87.01,20.37-1.15,41.63-12.25,55.03-27.46,38.9-44.17,18.66-113.58,2.21-163.26l-1.93-2.07c-13.16-1.98-45.82-17.55-45.79-32.69.03-15.22,15.47-1.17,20.81,1.67,18.99,10.08,39.78,12.97,61.16,11.81l14.51-3.97ZM348.17,248c1.39-16.6-13.53-28.5-28.99-29l3.13,16.86c10.03-.03,18.51,5.9,25.85,12.13ZM313.18,403c.44-1.75-.73-2-1.5-3-6.38-8.4-25.85-11.01-28.29-21.7-2.78-12.18,11.22-24.38,12.78-36.29-12.46,12.7-25.72,23.31-42.83,29.16.76,10.21-3.04,23.12,3.34,31.84h56.5Z"/>
        <path d="M275.84,87.66c-13.09,13.69-27.78-15.11-16.65-29.15,13.14-16.58,27.84,17.45,16.65,29.15Z"/>
        <path d="M341.81,70.25c7.94-.84,18.24,18.25,8.4,21.34-10.85,3.41-20.29-20.08-8.4-21.34Z"/>
      </g>
    </g>
  </g>
</svg>